
<svg width="88px" height="99px" viewBox="0 0 88 99" version="1.1" xmlns="http://www.w3.org/2000/svg" xmlns:xlink="http://www.w3.org/1999/xlink">
    <g id="Page-1" stroke="none" stroke-width="1" fill="none" fill-rule="evenodd">
        <path d="M30.6741438,12.6008178 C34.8776574,11.2595576 39.3547643,10.535917 44,10.535917 C68.300529,10.535917 88,30.3392765 88,54.7679585 C88,79.1966405 68.300529,99 44,99 C19.699471,99 0,79.1966405 0,54.7679585 C0,38.0547349 9.22093454,23.5065337 22.8276323,15.9840253 C21.1670303,14.9008194 18.7523003,14.2134405 15.5834423,13.9218886 C18.6509794,13.0795598 22.0203241,13.7811853 24.3145949,14.5217455 C22.3575029,10.9937739 19.9856232,5.46218489 20.4695662,5.06261699e-13 C22.4077432,6.90305543 25.1263441,11.3401486 28.625369,13.3112795 C28.7347917,13.2702526 28.8444205,13.2296509 28.9542535,13.1894765 C27.9616033,11.1773745 27.0544168,8.5714657 27.2038121,5.94919414 C28.1368232,8.97368589 29.2936004,11.1908938 30.6741438,12.6008178 Z M22.5,47 C27.1944204,47 31,42.9705627 31,38 C31,33.0294373 27.1944204,29 22.5,29 C17.8055796,29 14,33.0294373 14,38 C14,42.9705627 17.8055796,47 22.5,47 Z M50.5,33 C55.1944204,33 59,28.9705627 59,24 C59,19.0294373 55.1944204,15 50.5,15 C45.8055796,15 42,19.0294373 42,24 C42,28.9705627 45.8055796,33 50.5,33 Z M49.5,60 C54.1944204,60 58,55.9705627 58,51 C58,46.0294373 54.1944204,42 49.5,42 C44.8055796,42 41,46.0294373 41,51 C41,55.9705627 44.8055796,60 49.5,60 Z" id="Coconut-Salmon-Copy" fill="#E27272"></path>
    </g>
</svg>
